<?xml version="1.0" encoding="UTF-8" standalone="no"?>
<!-- Created with Inkscape (http://www.inkscape.org/) -->

<svg
   xmlns:dc="http://purl.org/dc/elements/1.1/"
   xmlns:cc="http://creativecommons.org/ns#"
   xmlns:rdf="http://www.w3.org/1999/02/22-rdf-syntax-ns#"
   xmlns:svg="http://www.w3.org/2000/svg"
   xmlns="http://www.w3.org/2000/svg"
   xmlns:sodipodi="http://sodipodi.sourceforge.net/DTD/sodipodi-0.dtd"
   xmlns:inkscape="http://www.inkscape.org/namespaces/inkscape"
   width="212.66666mm"
   height="46.111462mm"
   viewBox="0 0 212.66666 46.111462"
   version="1.1"
   id="svg8"
   inkscape:version="0.92.0 r15299"
   sodipodi:docname="avigilon.svg">
  <defs
     id="defs2" />
  <sodipodi:namedview
     id="base"
     pagecolor="#ffffff"
     bordercolor="#666666"
     borderopacity="1.0"
     inkscape:pageopacity="0.0"
     inkscape:pageshadow="2"
     inkscape:zoom="1.00625"
     inkscape:cx="445.71428"
     inkscape:cy="85.249999"
     inkscape:document-units="mm"
     inkscape:current-layer="layer1"
     showgrid="false"
     fit-margin-top="0"
     fit-margin-left="0"
     fit-margin-right="0"
     fit-margin-bottom="0"
     inkscape:window-width="1280"
     inkscape:window-height="744"
     inkscape:window-x="-4"
     inkscape:window-y="-4"
     inkscape:window-maximized="1" />
  <metadata
     id="metadata5">
    <rdf:RDF>
      <cc:Work
         rdf:about="">
        <dc:format>image/svg+xml</dc:format>
        <dc:type
           rdf:resource="http://purl.org/dc/dcmitype/StillImage" />
        <dc:title></dc:title>
      </cc:Work>
    </rdf:RDF>
  </metadata>
  <g
     inkscape:label="Layer 1"
     inkscape:groupmode="layer"
     id="layer1"
     transform="translate(90.714285,-327.87285)">
    <g
       id="g4502"
       transform="matrix(0.26458333,0,0,0.26458333,-91.669497,327.04994)">
      <g
         id="g4487"
         style="fill:#005daa">
        <path
           id="path4485"
           d="M 90.5,20.1 C 85.8,15.2 80.6,11.6 74.9,9.2 69.2,6.8 63,5.6 56.2,5.6 48.6,5.6 41.9,6.8 36,9.3 30.1,11.8 24.6,15.7 19.7,20.9 15.1,25.6 11.6,31.1 9.2,37.4 6.7,43.7 5.5,50.3 5.5,57.3 c 0,15 4.9,27.4 14.8,37.4 9.8,9.9 22.2,14.9 37.1,14.9 6.4,0 12.4,-1.2 18,-3.6 5.6,-2.5 10.7,-6 15.3,-10.8 v 12.2 h 18.1 V 8.1 H 90.5 Z M 81.4,82.3 C 74.7,89.2 67,92.6 58.2,92.6 48.6,92.6 40.5,89.2 33.9,82.4 27.3,75.6 24,67.2 24,57.1 c 0,-9.6 3.3,-17.7 9.9,-24.3 6.6,-6.6 14.6,-9.9 24,-9.9 9.1,0 17,3.5 23.6,10.4 6.6,7 10,15.3 10,25.1 -0.1,9.1 -3.4,17.1 -10.1,23.9 z M 178.9,81.5 147.1,8.1 h -19.2 l 43.4,99.2 h 13.5 L 230.3,8.1 h -18.8 z m 72,25.9 h 17.7 V 8.1 h -17.7 z m 174,0 h 17.7 V 8.1 H 424.9 Z M 493.1,8.1 h -17.7 v 99.2 h 71.1 V 89.7 h -53.4 z m 153,12.2 C 641.1,15.2 635.5,11.4 629.3,8.9 623.2,6.3 616.5,5 609.3,5 c -6.7,0 -13.2,1.4 -19.5,4.3 -6.3,2.9 -11.9,7 -16.9,12.3 -4.6,4.9 -8.1,10.4 -10.5,16.5 -2.4,6.1 -3.6,12.7 -3.6,19.7 0,6.7 1.3,13.3 3.9,19.8 2.6,6.5 6.2,12.1 10.9,17 4.9,5.1 10.4,9 16.5,11.6 6.1,2.6 12.8,3.9 20.1,3.9 7.1,0 13.8,-1.4 20.1,-4.3 6.3,-2.8 11.9,-7 17,-12.6 4.4,-4.8 7.8,-10.4 10.2,-16.8 2.4,-6.4 3.7,-13 3.7,-19.8 0,-6.7 -1.3,-13.1 -3.9,-19.4 -2.6,-6.3 -6.3,-11.9 -11.2,-16.9 z m -12.7,62.1 c -6.2,6.6 -13.9,10 -23.1,10 -9.4,0 -17.2,-3.3 -23.5,-9.9 -6.3,-6.6 -9.4,-14.9 -9.4,-24.8 0,-10 3.1,-18.3 9.4,-25 6.3,-6.6 14.1,-10 23.3,-10 9.3,0 17.1,3.3 23.3,9.8 6.2,6.5 9.3,14.9 9.3,24.9 0,10 -3.1,18.3 -9.3,25 z M 761.2,17.9 C 754.3,10.3 744.3,6.4 731.3,6.4 c -5.8,0 -10.9,1 -15.4,3.1 -4.5,2.1 -8.6,5.3 -12.3,9.8 V 8.1 h -17.2 v 99.2 h 17.9 V 62.2 c 0,-13.8 2,-23.7 6,-29.7 4,-6 10.4,-9 19.3,-9 8.2,0 14.2,2.6 18.1,7.6 3.9,5.1 5.9,12.9 5.9,23.4 v 52.8 h 17.9 V 50.7 c 0.1,-14.2 -3.3,-25.2 -10.3,-32.8 z m -408.5,49 h 24.5 c -0.2,0.7 -1.2,7.9 -8.1,15.5 -6.1,6.7 -13.9,9.7 -23.1,10 -5.8,0.2 -15.5,-1.7 -23.5,-9.9 -6.3,-6.6 -9.4,-14.9 -9.4,-24.8 0,-10 3.1,-18.3 9.4,-25 1.2,-1.3 9.6,-10 23.4,-9.9 13.9,0.1 21.4,8.1 23.5,10.5 H 391 c -1.5,-2.8 -3.1,-5.5 -5.1,-8.1 -0.2,-0.3 -5.3,-7 -11.3,-11.3 C 368.2,9.2 358.1,5 345,5 c -19,0 -30.7,10.4 -35.6,15.6 -2.3,2.4 -4.4,5.1 -6.2,8 -2,3 -3.7,6.2 -5,9.5 -1.7,4.4 -2.9,9 -3.3,14 -2.2,25.8 12.1,40 14.5,42.5 4.9,5.1 10.4,9 16.5,11.6 6.1,2.6 12.8,4.1 20.1,3.9 21.2,-0.5 35.2,-12.3 42.5,-23.2 3,-4.4 5,-9.4 6.4,-14.8 2.1,-8.1 2.1,-18 2.1,-18.4 v -2.1 h -44.2 v 15.3 z m 430.9,-45 V 9.6 h -4.4 V 8.1 h 10.4 v 1.5 h -4.4 v 12.2 h -1.6 z m 20.1,0 V 10.6 L 799,21.9 h -0.7 l -4.7,-11.3 v 11.3 h -1.7 V 8.1 h 2.5 l 4.3,10.3 4.3,-10.3 h 2.5 v 13.7 h -1.8 z"
           inkscape:connector-curvature="0" />
      </g>
      <path
         id="path4489"
         d="m 308.2,164.4 c -1.1,2.4 -2.8,3.5 -5.4,3.5 -4.5,0 -5.8,-2.9 -5.8,-6.9 0,-6.4 6.3,-6.7 11,-6.5 0.1,-2.8 0.1,-5.8 -3.5,-5.8 -2.3,0 -3.5,1.5 -3.3,3.8 h -3.7 c 0.2,-4.7 2.7,-6.3 7.1,-6.3 5.4,0 6.8,2.8 6.8,6.3 v 10.1 c 0,1.7 0.2,3.4 0.4,5 H 308 v -3.2 z m -7.7,-3.2 c 0,2 1,3.9 3.3,3.9 2.1,0 4.7,-1.3 4.3,-8.1 -3.3,0 -7.6,-0.3 -7.6,4.2 z m 28.8,6.2 h -3.6 v -30.1 h 6.2 l 7.6,25.3 h 0.1 l 7.7,-25.3 h 6.3 v 30.1 h -3.8 v -26.8 h -0.1 l -8.4,26.8 h -3.6 l -8.3,-26.8 h -0.1 z m 28.8,-10.2 c 0,-6.2 0.7,-11.3 8,-11.3 7.3,0 8,5.1 8,11.3 0,9.3 -3.5,10.6 -8,10.6 -4.5,0 -8,-1.3 -8,-10.6 z m 12.4,-1.4 c 0,-5.8 -1.8,-7 -4.4,-7 -2.6,0 -4.4,1.2 -4.4,7 0,6.8 0.9,9.3 4.4,9.3 3.5,0 4.4,-2.5 4.4,-9.3 z m 8.6,-9.4 v -4 l 3.4,-1.5 v 5.6 h 4.6 v 2.6 h -4.6 V 162 c 0,1.3 0,3 3.1,3 0.2,0 0.8,-0.1 1.5,-0.2 v 2.6 c -1.1,0.1 -2.3,0.3 -3.4,0.3 -3.3,0 -4.7,-1.3 -4.7,-3.8 v -15 h -3.5 v -2.6 h 3.6 z m 9.7,10.8 c 0,-6.2 0.7,-11.3 8,-11.3 7.3,0 8,5.1 8,11.3 0,9.3 -3.5,10.6 -8,10.6 -4.5,0 -8,-1.3 -8,-10.6 z m 12.5,-1.4 c 0,-5.8 -1.8,-7 -4.4,-7 -2.6,0 -4.4,1.2 -4.4,7 0,6.8 0.9,9.3 4.4,9.3 3.5,0 4.4,-2.5 4.4,-9.3 z m 10.9,-6.2 c 1.5,-3.2 3.2,-3.6 6.6,-3.6 v 3.5 c -0.3,0 -0.6,-0.1 -0.9,-0.1 -0.3,0 -0.6,-0.1 -0.9,-0.1 -3.8,0 -4.8,2.9 -4.8,5.7 v 12.4 h -3.4 v -21 h 3.4 z m 8.6,7.6 c 0,-6.2 0.7,-11.3 8,-11.3 7.3,0 8,5.1 8,11.3 0,9.3 -3.5,10.6 -8,10.6 -4.5,0 -8,-1.3 -8,-10.6 z m 12.4,-1.4 c 0,-5.8 -1.8,-7 -4.4,-7 -2.6,0 -4.4,1.2 -4.4,7 0,6.8 0.9,9.3 4.4,9.3 3.5,0 4.4,-2.5 4.4,-9.3 z m 10.9,11.6 h -3.4 v -30.1 h 3.4 z m 15,-3 c -1.1,2.4 -2.8,3.5 -5.4,3.5 -4.5,0 -5.8,-2.9 -5.8,-6.9 0,-6.4 6.2,-6.7 11,-6.5 0.1,-2.8 0.1,-5.8 -3.5,-5.8 -2.3,0 -3.5,1.5 -3.3,3.8 h -3.7 c 0.2,-4.7 2.7,-6.3 7.1,-6.3 5.4,0 6.8,2.8 6.8,6.3 v 10.1 c 0,1.7 0.2,3.4 0.4,5 h -3.8 v -3.2 z m -7.7,-3.2 c 0,2 1,3.9 3.3,3.9 2.1,0 4.7,-1.3 4.3,-8.1 -3.2,0 -7.6,-0.3 -7.6,4.2 z m 28.2,-2.7 v 0.9 c 0,4.1 2.6,5.4 5,5.4 3,0 5.4,-1.3 5.4,-4.9 0,-6.7 -13.5,-5.9 -13.5,-15 0,-5.3 3.8,-8.2 8.8,-8.2 5.5,0 8.6,2.7 8.3,8.8 h -4 c 0,-3.3 -1,-5.5 -4.6,-5.5 -2.3,0 -4.6,1.2 -4.6,4.4 0,6.6 13.5,5.7 13.5,15.2 0,6.3 -4.4,8.4 -9.3,8.4 -8.9,0.1 -8.9,-6.7 -8.8,-9.6 h 3.8 z m 18.1,-1.3 c 0,-6.2 0.7,-11.3 8,-11.3 7.3,0 8,5.1 8,11.3 0,9.3 -3.5,10.6 -8,10.6 -4.5,0 -8,-1.3 -8,-10.6 z m 12.4,-1.4 c 0,-5.8 -1.8,-7 -4.4,-7 -2.6,0 -4.4,1.2 -4.4,7 0,6.8 0.9,9.3 4.4,9.3 3.5,0 4.4,-2.5 4.4,-9.3 z m 10.9,11.6 h -3.4 v -30.1 h 3.4 z m 15.6,-21 h 3.4 v 16.7 c 0,1.5 0.1,2.9 0.2,4.4 h -3.6 V 165 h -0.1 c -1.1,1.9 -3.1,3 -5.3,3 -3.7,0 -5.7,-1.8 -5.7,-5.4 v -16 h 3.4 V 161 c 0,2.5 1.2,4.2 3.6,4.2 1.8,0 4.1,-1.4 4.1,-4.9 z m 9.4,0 v -4 l 3.4,-1.5 v 5.6 h 4.6 v 2.6 h -4.6 V 162 c 0,1.3 0,3 3.1,3 0.2,0 0.8,-0.1 1.5,-0.2 v 2.6 c -1.1,0.1 -2.3,0.3 -3.4,0.3 -3.2,0 -4.7,-1.3 -4.7,-3.8 v -15 h -3.5 v -2.6 h 3.6 z m 10.3,-9.1 h 3.8 v 3.7 h -3.8 z m 3.6,30.1 h -3.4 v -21 h 3.4 z m 3.8,-10.2 c 0,-6.2 0.7,-11.3 8,-11.3 7.3,0 8,5.1 8,11.3 0,9.3 -3.5,10.6 -8,10.6 -4.5,0 -8,-1.3 -8,-10.6 z m 12.4,-1.4 c 0,-5.8 -1.8,-7 -4.4,-7 -2.6,0 -4.4,1.2 -4.4,7 0,6.8 0.9,9.3 4.4,9.3 3.5,0 4.4,-2.5 4.4,-9.3 z m 18.9,11.6 v -14.6 c 0,-2.2 -0.8,-4.1 -3.7,-4.1 -3.8,0 -4.3,3.3 -4.3,6.2 v 12.5 h -3.4 v -16.7 c 0,-1.5 -0.1,-2.9 -0.2,-4.4 h 3.6 v 2.7 h 0.2 c 1.3,-2.4 2.9,-3.1 5.6,-3.1 4.5,0 5.6,2.7 5.6,6.9 v 14.6 z m 14,0.4 c -4.5,0 -7.4,-2 -7.2,-6.8 h 3.9 c 0,1.2 0,4 3.5,4 2,0 3.6,-1 3.6,-3.2 0,-3.8 -10.5,-3.8 -10.5,-10.1 0,-2.2 1.3,-5.8 7.3,-5.8 3.8,0 7,1.8 6.7,6 h -3.8 c 0,-2.2 -1.1,-3.4 -3.3,-3.4 -1.8,0 -3.3,1 -3.3,2.8 0,3.7 10.5,3.6 10.5,10 0,4.8 -3.2,6.5 -7.4,6.5 z m 33.1,-22.2 c 0,-1.7 -0.1,-3.4 -0.9,-4.4 -0.8,-1 -2.6,-1.3 -3.4,-1.3 -3.2,0 -4.4,1.9 -4.5,2.3 -0.1,0.3 -0.9,1.1 -0.9,6.3 v 8 c 0,7.4 2.4,8.3 5.4,8.3 1.2,0 4.7,-0.4 4.8,-6.3 h 4 c 0.2,9.5 -6.5,9.5 -8.5,9.5 -3.8,0 -9.5,-0.2 -9.5,-11.9 v -8.5 c 0,-8.5 3.8,-10.9 9.7,-10.9 6,0 8.3,3.1 7.9,8.9 z m 8.1,11.6 c 0,-6.2 0.7,-11.3 8,-11.3 7.3,0 8,5.1 8,11.3 0,9.3 -3.5,10.6 -8,10.6 -4.5,0 -8,-1.3 -8,-10.6 z m 12.4,-1.4 c 0,-5.8 -1.8,-7 -4.4,-7 -2.6,0 -4.4,1.2 -4.4,7 0,6.8 0.9,9.3 4.4,9.3 3.5,0 4.4,-2.5 4.4,-9.3 z m 17.8,11.6 v -14.6 c 0,-2.1 -0.6,-4.1 -3.3,-4.1 -1,0 -2.5,0.6 -3,1.4 -0.6,1 -0.8,2.3 -0.8,3.1 v 14.2 h -3.4 v -16.7 c 0,-1.5 -0.1,-2.9 -0.2,-4.4 h 3.6 v 2.6 h 0.1 c 1,-2.2 2.8,-3 5.3,-3 1.9,0 4.1,0.8 4.9,2.7 1.2,-2.3 3.1,-2.7 5,-2.7 2.2,0 5.8,0.5 5.8,5.5 v 16 H 691 v -14.6 c 0,-2.1 -0.6,-4.1 -3.3,-4.1 -1.3,0 -1.7,0 -2.6,0.8 -1,0.8 -1.2,2.9 -1.2,3.7 v 14.2 z m 21.9,-18.5 c 1.2,-2 2.7,-2.9 4.9,-2.9 3.4,0 6.8,1.3 6.8,10.6 0,5.2 -0.2,11.3 -7,11.3 -2,0 -3.5,-0.9 -4.6,-2.5 h -0.1 v 10.1 h -3.4 v -29 h 3.4 z m 8.1,7.7 c 0,-3.2 0,-7.8 -4.3,-7.8 -4.2,0 -3.8,5.8 -3.8,9 0,2.8 0.2,7.3 4,7.3 3.6,0 4.1,-2.9 4.1,-8.5 z m 18.2,7.8 c -1.1,2.4 -2.8,3.5 -5.4,3.5 -4.5,0 -5.8,-2.9 -5.8,-6.9 0,-6.4 6.2,-6.7 11,-6.5 0.1,-2.8 0.1,-5.8 -3.5,-5.8 -2.3,0 -3.5,1.5 -3.3,3.8 h -3.7 c 0.2,-4.7 2.7,-6.3 7.1,-6.3 5.4,0 6.8,2.8 6.8,6.3 v 10.1 c 0,1.7 0.2,3.4 0.4,5 h -3.8 v -3.2 z m -7.7,-3.2 c 0,2 1,3.9 3.3,3.9 2.1,0 4.7,-1.3 4.3,-8.1 -3.3,0 -7.6,-0.3 -7.6,4.2 z m 27.1,6.2 v -14.6 c 0,-2.2 -0.8,-4.1 -3.7,-4.1 -3.8,0 -4.3,3.3 -4.3,6.2 v 12.5 h -3.4 v -16.7 c 0,-1.5 -0.1,-2.9 -0.2,-4.4 h 3.6 v 2.7 h 0.2 c 1.3,-2.4 2.9,-3.1 5.6,-3.1 4.5,0 5.6,2.7 5.6,6.9 v 14.6 z m 14.5,-3.9 5.1,-17.1 h 3.7 l -9.5,29 h -3.5 l 2.4,-8 -7.1,-21 h 4 z"
         inkscape:connector-curvature="0" />
    </g>
  </g>
</svg>
